<svg xmlns="http://www.w3.org/2000/svg" viewBox="0 0 680 680" width="680" height="680">
  <defs>
    <style>
         @font-face {
  font-family: 'Russo One';
  font-style: normal;
  font-weight: 400;
  font-display: swap;
  src: url(https://fonts.gstatic.com/s/russoone/v14/Z9XUDmZRWg6M1LvRYsHOz8mJvLuL9A.woff2) format('woff2');
}
        </style>

    <linearGradient id="a" x1="0" y1="0" x2="60%" y2="60%">
      <stop offset="0" stop-color="#F59"/>
      <stop offset="1" stop-color="#70F"/>
    </linearGradient>
  </defs>
 <rect x="0" y="0" width="100%" height="100%" rx="5%" fill="url(#a)"/>

 <g transform="translate(-60,130)" fill="#fff">
  <path class="st0" d="M164 365h-42c-19 1-39-13-39-37v-59c1-18 17-34 35-34h60c17 0 33 16 35 32v94c0 4 0 4-4 4h-45zm22-26v-65c0-8-4-12-12-13l-52 1c-8 0-13 4-13 12v51c0 9 6 14 14 14h63z"/>
  <path class="st0" d="M332 365h-42c-18 1-39-13-39-38v-54c0-20 13-34 32-38h60c18-1 38 13 38 37l1 90c0 3-1 3-4 3h-46zm23-26v-65c0-8-5-13-13-13l-52 1c-8 0-12 4-12 12v51c-1 9 5 14 14 14h63z"/>
  <path class="st0" d="M469 365h-46c-3 0-4-1-4-4v-87c0-20 13-35 32-39h60c18-1 38 13 39 38v54c-1 20-13 34-32 38h-49zm-23-27 2 1h63c8 0 12-5 12-12v-53c0-8-5-12-12-12h-53c-8 0-12 4-12 12v64z"/>
  <path class="st0" d="M637 365h-45c-3 0-4 0-4-3v-89c0-22 16-38 38-38h53c19-1 39 14 39 38l-1 59c0 17-17 33-34 33h-46zm-22-27 1 1h64c7 0 11-5 11-13v-52c0-8-4-13-12-13h-52c-8 0-12 5-12 13v64z"/>
  <path class="st0" d="M186 209v-48c0-3 1-4 4-4h20c2 0 3 1 3 4v46c0 2 0 3-2 3h-23l-2-1z"/>
  <path class="st0" d="M446 417v23c0 2 0 3-3 3h-21c-2 0-3-1-3-3v-47c0-2 1-2 3-2h21c2 0 3 0 3 2v24z"/>
  <path class="st0" d="M614 391v48c1 3 0 4-3 4h-20c-2 0-3-1-3-3v-47c0-1 0-3 2-3l23 1h1z"/>
</g>

<text x="160" y="340" font-weight="400" font-size="320" font-family="Russo One" fill="#fff">W2</text>
</svg>